<?xml version="1.0" encoding="UTF-8"?>
<svg id="Layer_2" data-name="Layer 2" xmlns="http://www.w3.org/2000/svg" viewBox="0 0 260.533580949 42.254768447">
  <defs>
    <style>
      .cls-1 {
        fill: #fff;
      }

      .cls-2 {
        fill: #ed4a28;
      }
    </style>
  </defs>
  <g id="Layer_1-2" data-name="Layer 1">
    <g>
      <path class="cls-1" d="M77.1070148711,41.3528911353c.2712263951-.2248366932,.5113515066-.5799666275,.8187488375-.6533573926,1.9810579954-.472995376,2.6779206326-1.1612046412,2.6929388815-3.2008973763,.0447527922-6.0742618438,.0681780819-12.1497394506-.0093526343-18.2233576551-.0359325509-2.8154051517-1.2485568154-3.8446875882-4.0772082214-3.8470475988-1.9067136907-.0015971788-3.8134353276-.0003019542-5.8784922163-.0003019542-.026746786,.5074261019-.0709910237,.9599283225-.0713724396,1.4124623277-.0052762525,6.3783535707-.0051729524,12.7566991951-.0039174586,19.1350527658,.0000715155,.3899420762-.004863052,.7825779017,.0359087124,1.1693891895,.2654495343,2.5183060486,.9068558972,3.149573107,3.4475860189,3.5569490656,.339015115,.0543438114,.6320934594,.3952262748,.9464436832,.6034157557-.0640699154,.1152034769-.1281398309,.2304148999-.1922176925,.3456263229h-15.5365293733c-.2972659725-.5962562625-.205424216-.8784880939,.6298685336-.9922374228,2.2202375135-.3023515171,2.9730808719-1.121704263,2.9830294684-3.3316594411,.0320389308-7.1157972643,.0113868521-14.2318408597,.0076283169-21.3477891011-.0000635693-.1240713952-.0429966901-.2481348443-.086907189-.4857330759h-3.57214213c-.3481929337-.7380078713-.3429405197-1.1616496264,.5410622116-1.1489754958,.9878511407,.0141759555,1.9760678048,.003257927,2.9469538866,.003257927,.2211337811-1.4506992659,.3098606415-2.7899774288,.6397376686-4.0669497245,1.5053688701-5.8272831663,5.6007976442-9.224573944,11.7254778947-9.95250608C78.101588466-.0291942043,81.076767125,.0011800053,83.9715703413,.8843205778c1.1710499377,.3572634792,2.3089564278,.9861268232,3.3078765741,1.7053698296,1.3985724341,1.006981529,1.8914491109,2.9601167063,1.2899801652,4.5658694585-.6099633944,1.6284311026-1.8975676567,2.44902345-3.5843871678,2.5419697232-1.0681391756,.0588572323-2.184416209,.0666365262-3.2139449766-.1774775594-1.8280705116-.4334473207-2.8035494759-1.62247148-2.9659293248-3.1862287587-.1941168255-1.8693945344,.625410736-3.1671539935,2.2222637852-4.0429602572,.2960661018-.1623758758,.6007696833-.3089945097,.945752367-.4855344218-3.4792753185-1.7077616248-7.8352270056-.3361425769-9.8268772368,3.0915780335-1.6894496912,2.9076084586-1.4040552868,6.136714715-1.5409835744,9.5573791322,5.9488872778-.1461140525,11.7347749059-.2882232386,17.724433948-.4353385076,0,.2603083666-.0000556231,.7132158415-.0000079462,1.1661312625,.000778724,6.9424199252,.0010409474,13.8848477967,.0035201504,20.8272677219,.0001668694,.4769764038-.006078815,.9556930174,.0298537359,1.4306352034,.1682282252,2.2232888403,.7673530527,2.8492081307,2.9426152814,3.2593731927,.3225824491,.0608278808,.5873645057,.4282425837,.8788854021,.6538182701-.072119379,.1069076823-.1442387579,.2138153646-.2163501907,.3207230469h-14.5381972431c-.1076864063-.1080042528-.2153728126-.2160005595-.3230592189-.3240048123Z"/>
      <path class="cls-1" d="M200.8790145402,.6009524451c3.9908493177-.2109865304,7.5949429707-.4015275824,11.3670503025-.6009524451,0,.4630189678,.0000317847,1.0121306429-.0000158923,1.561242318-.0009376473,11.0611349312-.0123483379,22.1222897277,.0126502921,33.1833650627,.0026063416,1.1544901332,.1607985624,2.3187302088,.3556067041,3.4598866798,.1976210836,1.1577560063,1.0346063661,1.7079006826,2.1348321494,1.9936526644,.347771787,.0903160931,.6184657892,.4775167429,.9244248645,.7288379987-.3460713081,.1269479064-.6885668426,.3528176008-1.0387701557,.3654837852-3.319493865,.1200109057-6.6403067931,.2037873064-10.0466999009,.3004364917v-3.4354204427c-.1698571887,.0334374556-.2923552435,.0244900756-.3133490072,.0663901951-2.110644028,4.2135246544-6.4628848568,4.6980499135-10.4106977536,3.3202408043-3.8180520486-1.3325477625-5.711670462-4.3628886877-6.497180498-8.113231478-.9152549919-4.3697780114-1.0587309181-8.7707447141,.5507168001-13.0359988922,2.2342068688-5.9210359751,8.7114901737-8.8123349333,14.56566713-6.5626250997,.6658567077,.2558823536,1.2802222765,.6458085374,1.8333864949,.9298918249,0-3.5932391938,.0754249829-7.209983139-.0402711561-10.8206005922-.041335942-1.2900079767-.8958504609-2.1846903516-2.306437494-2.4350977986-.3537790866-.0628064755-.6384583363-.5148994686-1.0909128799-.9055010763Zm3.6808535914,25.5355046169c0-2.77369574-.0759494297-5.5503474528,.0321501771-8.3198237801,.0537955262-1.3782223096-.6073888374-2.0956098869-1.690117169-2.6041087209-2.2862860237-1.0737332746-4.553930348-.5062500697-5.8715154848,1.6334928086-.6882489961,1.1176755582-1.2228827615,2.3895305246-1.5429224383,3.6631098086-.9501863262,3.7811818504-.8250660374,7.6517500928-.4758798333,11.486123561,.1657728607,1.8203627331,.6332456531,3.6695064701,1.3004532085,5.3739267332,.8658298556,2.2118543112,3.0882605102,3.0750937175,5.0974161394,2.1801570654,2.1122809377-.9408734227,3.1019438036-2.6983502187,3.1390364943-4.9619578921,.0461672093-2.8162792296,.0110610594-5.6338854686,.011378906-8.4509195837Z"/>
      <path class="cls-1" d="M137.9731007957,42.0062962049h-10.4854075818c.4499594483-.5095636199,.6428128338-.9315843577,.9478978311-1.0412255202,2.4141874696-.8675144422,3.1779091256-1.6844038775,3.1936584215-4.2509272455,.0580387774-9.4560138989,.0473114568-18.912615814,.0184350991-28.3688601516-.005641776-1.8458460791-.8315183221-2.5698448643-2.8916088586-2.7737195785-.6549863561-.064824801-1.278299305-.0428337938-.8115098826-1.0927087128,4.0795126088,0,8.1935592438-.0267587052,12.3058100458,.0469419602,.358276615,.0064205,.853545087,.6116042771,1.0345745814,1.0436610192,3.2356936258,7.7233609173,6.4320219582,15.4632180698,9.6397450889,23.1982995782,.1631029498,.3932715186,.3528573316,.7754819778,.6472785776,1.4184855196,1.0588103797-2.7577080593,2.0373645092-5.2924944507,3.0056680879-7.8311744622,2.1219116877-5.5631407759,4.2601289027-11.1202742522,6.335476073-16.7007535566,.3304332585-.8885717752,.7817912316-1.144271367,1.6945034512-1.1310251127,3.5935093634,.0521387511,7.188242436,.0213632603,11.0437368064,.2777144375-.2643688561,.2475627205-.5141962331,.6906248989-.7954268479,.7115471472-2.1208627942,.1577512088-3.2808437262,.7599194168-3.2331190689,3.2780347575,.0212321486,1.120194492,.2673407212,2.5044797243-.2781633957,3.2900851143-.5245421379,.7553861306-1.961923634,.84455003-2.958595016,1.3110692828-2.2186006039,1.0384840938-3.9534705651,2.6171086442-5.2202797178,5.1205156364V9.3366704709c-.0809078357-.0238623287-.1618156713-.0477167112-.2427393993-.0715710937-.1713828521,.3721188317-.3646176534,.7358465148-.5109224138,1.1175802042-3.8608500846,10.0723977933-7.7169324711,20.1466232042-11.573126104,30.2208168304-.0927476191,.2422944142-.1348940698,.5165562437-.2760497163,.7247934015-.2177566616,.3212713321-.500767217,.5982984265-.7561092315,.8940784665-.264654918-.2911951037-.633531715-.5382174851-.7784856276-.8801647344-2.5431378092-5.9994407693-5.0596241863-12.0101809829-7.5803697071-18.0191094713-1.9368932193-4.6172056471-3.8706079732-9.2357541958-5.8095036257-13.8521175496-.1445248198-.3441006596-.319467553-.6754238884-.6772197213-.9819471413,0,.4061125187-.0000158923,.8122250373,0,1.218337556,.0001589233,7.8082974578-.0142077401,15.6166505388,.0134449085,23.4248526427,.0051967909,1.4679742252,.12294304,2.9415504955,.2869200678,4.4015070418,.2308042619,2.0551003459,1.2444168643,2.8441225862,4.0865688019,3.4417376426,.3420664417,.0719207249,.6249021815,.4255965113,.9351839697,.6486850486-.1034272627,.1273849453-.2068386331,.2547619445-.3102658958,.3821468899Z"/>
      <path class="cls-1" d="M45.5777986688,5.271691395c-.2568915163,0-.5142518563-.0102346585-.7705871412,.0016329366-1.9675018407,.0910789248-2.8234705075,.8996368077-2.9408591793,2.8813225501-.0666206339,1.1245172048,.0315383225,2.260333854-.0656432558,3.3805601306-.0295597278,.340715594-.4295139699,.8909079473-.7167518842,.9303288639-2.9095910264,.3992549797-5.4829878257,1.4732107468-7.7719596526,3.8166853084v-7.0368124002c-.0893784458-.0137865935-.1787489455-.0275811331-.2681273914-.0413677266-1.4025296235,3.6444522169-2.811241362,7.2865444233-4.2062698073,10.9338652052-2.6361357324,6.8922001726-5.2581988095,13.7897957902-7.9121140825,20.6751145853-.1518988594,.3940820273-.5372838109,.698165808-.8139970318,1.044133816-.3100553225-.3621225581-.7366689427-.6750980957-.9131135009-1.0935589523C14.8367902249,30.4196139462,10.5021501481,20.0642771129,6.1602115201,9.7120074988c-.1785463184-.4256998114-.3813324081-.8412364799-.7110703774-1.5649094724-.0543994346,.5003063395-.0919728682,.6842838606-.0918814873,.8682454893,.0043624437,8.7210255698,.0084984218,17.4420590857,.0263971548,26.163060817,.0013270093,.646372715,.0919331374,1.2938896776,.1623043604,1.9385460213,.2140020994,1.9605251092,1.3893111807,2.9277956867,3.2523646766,3.3594551207,.5515352549,.1277901997,1.7608261039-.2792996971,1.5747229842,1.1661471549H0c.1613706862-.3496232431,.2602130126-.8847735091,.4447864959-.9161926392,3.5394317484-.6024383776,3.5759205307-3.3872508002,3.6039307567-5.9848277748,.0823421182-7.6355399195,.0395440821-15.2725419331,.0223485845-22.9089241459-.003110923-1.381448452-.0101830084-2.7780422914-.2063658364-4.1401418355-.2573523938-1.7868140313-.9495983101-2.3207683997-2.777243702-2.4082278471-.6657692999-.0318601421-1.2839212156-.0037505891-.947893858-1.0412414125,2.3459180068,0,4.714025675,.0081487906,7.0820419622-.0028447265,1.6049581359-.0074455551,3.2172585268,.0428616053,4.8117197808-.0977219174,.8742527888-.0770857311,1.2006136386,.1909542525,1.5162908717,.9587443441,3.2335561079,7.8648105719,6.5088812236,15.7124335923,9.7722592827,23.5649752879,.132180455,.3180610821,.2614883718,.6373061426,.494251363,1.2050913016,.2487506719-.6026608702,.4288266267-1.0118406079,.5881472028-1.4289426706,2.9557463164-7.7384109508,5.9121561375-15.4765755705,8.8567261751-23.2192416918,.2302957074-.6055334083,.4589227206-1.0054280541,1.2557957703-1.0019317422,3.5124902815,.0154036377,7.0254017096-.0687422595,10.537891991-.0535333028,.2880881538,.0012475476,.5741261974,.4779974858,.8611177807,.7338043508l-.3380059522,.3702951872Z"/>
      <path class="cls-1" d="M120.1433086673,39.5405619733c-.1382791354,.395138867-.1561262183,.9789991146-.4335744594,1.1560952582-2.6411298961,1.6857785638-5.4823600788,2.0347581676-8.4088843794,.8829856224-1.4053584576-.553092703-2.0271298508-1.7871080393-2.1152528028-3.4788780103-.3642839146,.4233398009-.6112824575,.7006847418-.8477761724,.9867307316-2.2516884283,2.7233250103-5.8571964984,3.8099310696-9.2508280678,2.789890021-2.3126831785-.6951383198-3.8491612782-2.2015878681-4.3034196009-4.5627664817-.4971278742-2.5840367122-.2921565895-5.1885983644,2.0726454747-6.8031793041,1.7519065355-1.196112137,3.8098198233-1.9624560269,5.7737141058-2.8237804079,1.5743097837-.6904500834,3.2388085219-1.1752693504,4.8128799207-1.8662041498,1.1183907129-.4909219206,1.6767993991-1.416610225,1.6044893122-2.7155139317-.0674152502-1.2108602163-.0113947983-2.4284667253-.0133177698-3.6431093153-.0028606188-1.8083958111-.2901938871-3.5699489889-2.1227539811-4.3963261433-1.9799614249-.8928229726-3.9397554871-.5491514059-5.8831168834,.6914830846,.3561470433,.2145146269,.5966297322,.3593255086,.8370806364,.5041840673,2.033947659,1.2253858029,2.8108917309,3.5149297536,1.8543961509,5.4645447805-.8926561032,1.8194727628-3.4747142207,2.7188592664-5.5153843339,1.921120085-1.768220009-.6912208612-2.6839835553-3.0343616839-2.0402410204-5.197919214,.5146014875-1.7295539779,1.8379158081-2.751470321,3.3440634022-3.4251857843,4.0575970902-1.8149990729,8.3073165189-2.0005499342,12.5415091443-.8051529519,2.7686181416,.7816243621,4.3851856222,2.8398634426,4.4786801807,5.7357552833,.1818241108,5.6303494258,.1953008039,11.2661419736,.2767330863,16.8997095956,.0075329629,.5204578099-.0053874988,1.0412493587,.0045293131,1.5616356531,.033214963,1.742347301,.783030833,2.1813330976,2.2948519878,1.3465727409,.2237639611-.1235469484,.4415524074-.2579245176,.6621061185-.3872880576,.1256288432,.0548682582,.2512417942,.1097365165,.3768706374,.1645968285Zm-11.1083867918-13.4082130779c-1.5044471151,1.1285220712-2.8294221839,2.1489922126-4.1821611475,3.131241308-2.3439116006,1.7019887371-2.9395719008,4.072273654-2.5582514119,6.7728646908,.2488897298,1.7627371562,1.6718727778,2.8290963912,3.3877990855,2.7100708097,1.7462647595-.1211233686,3.5206271528-1.6238143816,3.4077439556-3.3470591058-.1976846529-3.0182786492-.0551304816-6.0588383406-.0551304816-9.2671177028Z"/>
      <path class="cls-1" d="M57.4354689377,39.5561841305c-.1472821385,.3936052575-.1770564127,.972062114-.4601464297,1.152002984-2.6013990792,1.653548925-5.4056001404,1.9810818339-8.3040824304,.9345005996-1.3038938973-.4708022348-1.8792676424-1.4508581892-2.5522282201-3.5596507612-.1104119403,.2611506599-.1715338292,.5601250576-.3386019145,.7777943114-2.6505222613,3.4533867181-6.646186954,4.040226777-10.1267018739,2.7566671119-2.2083897839-.8144102323-3.4208074482-2.5851332827-3.7068852227-4.9184526475-.3622417506-2.9544232802,.4243251252-5.5282889032,3.1905673639-6.9392017291,2.2529041913-1.1490946882,4.70157801-1.914898239,7.0655218885-2.8453621877,.4799721074-.1889120885,.9711165205-.3492815581,1.4539413006-.5312010228,1.8556357524-.6991511323,2.9421702963-1.8646625941,2.6711425553-4.0253515591-.133932584-1.0678292752-.0054669604-2.166473772-.0317290304-3.2502986741-.0809078357-3.3385169801-2.0937187-5.0174300587-5.3694848278-4.4139348414-.8577724459,.1580412437-1.6705457685,.5603793348-2.761244102,.9400867525,.7353856373,.4889353797,1.2059892181,.7629508781,1.6333021007,1.0930027208,1.4611484708,1.1286015328,1.9874149261,3.2850551928,1.2262042578,4.9332960807-.7828957483,1.6952186059-2.8254332099,2.5736033996-4.964484772,2.134959288-1.6762352215-.3437510284-2.7174130647-1.7806080777-2.8204827501-3.7202983465-.1302455642-2.4511450756,1.2853316596-3.917768453,3.2340090392-4.8747805335,4.1825425634-2.0540911832,8.6025403274-2.2074759751,13.0040791539-.9250287729,2.6406769648,.7693952167,4.1277458206,2.7956589356,4.327496476,5.5758784758,.1644220129,2.288638088,.2169302606,4.5880034966,.2407369661,6.8834276082,.0377681146,3.6433953772,.0079223249,7.2874661783,.0110769518,10.9312509174,.0023679567,2.7326140753,.5993632124,3.0937115783,2.9028765183,1.765399121,.1583749826,.0417650348,.316742019,.0835300696,.4751170016,.1252951044Zm-11.1410534695-13.392463782c-1.2741911385,.9348422847-2.3303872305,1.7597652911-3.4365646902,2.5111147707-2.4643992761,1.6738911033-3.7072825309,3.9045460371-3.3747832699,6.9411803238,.2032946442,1.8565972382,1.3936219743,3.0767783041,3.1729109889,3.1421275519,1.4951421578,.0549159352,3.5804538169-1.2224775071,3.6096162366-2.4109851658,.0824096605-3.3586128273,.0288207346-6.7205550972,.0288207346-10.1834374805Z"/>
      <path class="cls-1" d="M241.6457251481,15.4750499071c.9087868149,1.1937521265,1.9541205015,2.1863471267,2.5153739143,3.402364403,.6699251433,1.4515336131,.1866077011,2.9274301632-1.0552504985,3.9842540021-1.4051359651,1.195770452-3.0562533641,1.4175319799-4.7304782063,.686492894-1.4570403043-.6362016259-1.9440129817-1.9042106493-2.0616479846-3.4625486445-.1837152976-2.4339416318,1.1962154371-3.8959562345,3.0717960597-4.8275088075,4.2921360489-2.1318205535,8.8330505813-2.3361402528,13.3572146012-.8775981236,2.8439636629,.9168601169,4.1012374195,3.2431550733,4.155875239,6.1256496824,.103586186,5.4643620187,.0897916463,10.9309251247,.131747389,16.396526745,.0043227129,.5624294449,.0292100966,1.1274572853,.0908087553,1.6861838181,.1858766541,1.6866923725,.8091101413,1.9837279063,2.3256831018,1.1307072661,.1858130848-.1045238333,.3701322908-.2117652544,.5973607792-.3419393031,.5946908683,.4843504434,.7215116361,.8981071713-.037982661,1.3618611592-2.5485570926,1.5561448542-5.2437367921,1.9017791233-8.0841723585,.9946371642-1.5883427082-.5072751248-2.2254343044-1.794823764-2.5293909465-3.5495829722-.39956488,.4760308104-.6610890096,.7831579717-.9178772258,1.0941946453-2.3560692306,2.8537692285-6.9944990801,3.8163197849-10.2912033485,2.1346493876-4.2306009596-2.158058785-4.5968555227-8.7856517166-.4354497539-11.3432992202,2.2422483862-1.378095171,4.8823134964-2.1103182353,7.3471180268-3.1236209373,.4752123555-.1953643732,.980524778-.3180451898,1.4542432548-.5164449974,2.4024748248-1.0061591011,2.8151349821-1.6272073934,2.8159613831-4.179848814,.0003178465-.997934822,.0047994827-1.9959093748-.0024474183-2.9937965198-.0241881214-3.3365542778-1.9557733035-5.061308773-5.2549567749-4.5777688382-.9430824561,.1382155661-1.8403950111,.5884213454-2.4623253275,.7964360107Zm7.7147075454,10.6331426516c-1.3565690144,1.0134457329-2.5908624665,2.0025523674-3.8923486763,2.8935079916-2.5052346098,1.7149886604-3.2618365034,4.1187984406-2.8831223561,6.9977172763,.2164217062,1.6453246459,1.5803011909,2.8010623267,3.2195946988,2.7672196169,1.5407292972-.0318084921,3.5105196329-1.3389126393,3.5331820909-2.5170187701,.0646499854-3.3599954598,.0226942426-6.722056922,.0226942426-10.1414261147Z"/>
      <path class="cls-1" d="M183.0068534685,25.0020468836h-14.7513848608c-1.2074513122,3.0984792764,.2809922299,9.2278477633,2.6836100856,11.2787207503,2.5246868178,2.1550869199,6.3955490682,1.9795243859,8.981850437-.4437852793,.5636213694-.5281179114,.9889000342-1.2028902144,1.5459101957-1.7395264129,.2267676109-.2184797625,.6348031011-.248802322,.9603733076-.3647288997,.0457857935,.3004364917,.2146735502,.6487962948,.1191447739,.8942135512-1.9034080868,4.8894491511-6.0802294125,8.1711749015-12.0639288321,7.4908959073-6.1646971294-.7008595574-9.8821507494-5.295426585-10.4698807785-11.3133501303-.400391281-4.0996005099-.1090849311-8.0094386918,1.8387739937-11.7086320283,3.249806012-6.1717453763,11.8493188512-7.1954496062,16.3264892608-4.7657750641,2.8522912421,1.5479046827,4.0578036904,4.1248613633,4.5125308367,7.1612652112,.164962352,1.1016322543,.2044071071,2.2220730773,.3165115803,3.5107023947Zm-6.8479082579-1.1075680383c.1564281725-2.602606896-.100280582-5.0789730942-1.0388019403-7.4316890438-1.0461600876-2.6225676584-3.3944579704-2.948574904-5.0969870466-.6865803018-1.7956422188,2.3857402047-1.8873091597,5.2443883775-2.1156818956,8.1182693456h8.2514708826Z"/>
      <path class="cls-1" d="M232.2810444512,42.0935450789h-14.3318592183c-.1546641243-.5444631695-.3329601385-1.0302677608,.6679544948-1.1398533002,1.7969612819-.1967390594,2.5798172994-.972499153,2.5949944715-2.7821663502,.0527625249-6.2915178971,.0605497651-12.5841959341-.0041002203-18.8755072309-.0214387488-2.0861380601-.7239113774-2.7665044621-2.7695557889-3.4872373742-.3078025852-.1084412918-.4969371663-.5536886652-.7898009643-.9010710902,3.8906164127-.194673057,7.5012735967-.3753370279,11.3089002788-.5658542414,0,.3166705035-.000047677,.7693554858,0,1.222032522,.0008899703,6.9863383703-.0007628317,13.9726687945,.0065794233,20.9589992186,.000731047,.6929849095,.0212162563,1.3895932695,.0935740201,2.0781044889,.1501507035,1.4285771471,.8744911737,2.1477049341,2.3119203468,2.3640551248q.9086914609,.1367693643,.9113931565,1.1284982327Z"/>
      <path class="cls-2" d="M224.841941637,.9265266247c3.1285475586-.0028169149,4.8904503677,1.7000260347,4.6784149437,4.5166628417-.1407265537,1.8694898883-1.3718097558,3.1694901655-3.2386972756,3.4674792389-1.7007014586,.2714568338-3.3631500866,.2910361804-4.8281047697-.7783823275-1.3103859128-.9565591492-1.8675549975-2.7162529248-1.4265906062-4.2790963948,.4384375114-1.5537967629,2.1216415182-2.7765444396,4.0370324193-2.9239298782,.2578530021-.01984157,.518566623-.0027334802,.7779452885-.0027334802Z"/>
    </g>
  </g>
</svg>